<?xml version="1.0" encoding="UTF-8" standalone="no"?>
<!DOCTYPE svg PUBLIC "-//W3C//DTD SVG 1.1//EN"
 "http://www.w3.org/Graphics/SVG/1.1/DTD/svg11.dtd">
<!-- Generated by graphviz version 2.47.3 (20210619.1520)
 -->
<!-- Title: dependencies Pages: 1 -->
<svg width="729pt" height="174pt"
 viewBox="0.00 0.00 729.00 173.80" xmlns="http://www.w3.org/2000/svg" xmlns:xlink="http://www.w3.org/1999/xlink">
<g id="graph0" class="graph" transform="scale(1 1) rotate(0) translate(4 169.8)">
<title>dependencies</title>
<polygon fill="white" stroke="transparent" points="-4,4 -4,-169.8 725,-169.8 725,4 -4,4"/>
<text text-anchor="middle" x="360.5" y="-8.2" font-family="sans-serif" font-size="14.00">dependencies</text>
<g id="clust1" class="cluster">
<title>cluster_AuthModule</title>
<polygon fill="none" stroke="black" stroke-dasharray="1,5" points="8,-32.8 8,-157.8 713,-157.8 713,-32.8 8,-32.8"/>
</g>
<g id="clust2" class="cluster">
<title>cluster_AuthModule_declarations</title>
<polygon fill="none" stroke="black" points="289,-40.8 289,-92.8 705,-92.8 705,-40.8 289,-40.8"/>
</g>
<g id="clust6" class="cluster">
<title>cluster_AuthModule_imports</title>
<polygon fill="none" stroke="black" points="16,-40.8 16,-92.8 281,-92.8 281,-40.8 16,-40.8"/>
</g>
<!-- SigninComponent -->
<g id="node1" class="node">
<title>SigninComponent</title>
<polygon fill="#ffffb3" stroke="black" points="696.9,-84.8 579.1,-84.8 579.1,-48.8 696.9,-48.8 696.9,-84.8"/>
<text text-anchor="middle" x="638" y="-62.6" font-family="Times,serif" font-size="14.00">SigninComponent</text>
</g>
<!-- AuthModule -->
<g id="node4" class="node">
<title>AuthModule</title>
<polygon fill="#8dd3c7" stroke="black" points="401.55,-149.8 398.55,-153.8 377.55,-153.8 374.55,-149.8 314.45,-149.8 314.45,-113.8 401.55,-113.8 401.55,-149.8"/>
<text text-anchor="middle" x="358" y="-127.6" font-family="Times,serif" font-size="14.00">AuthModule</text>
</g>
<!-- SigninComponent&#45;&gt;AuthModule -->
<g id="edge1" class="edge">
<title>SigninComponent&#45;&gt;AuthModule</title>
<path fill="none" stroke="black" d="M638,-85.08C638,-106.12 638,-137.8 638,-137.8 638,-137.8 411.75,-137.8 411.75,-137.8"/>
<polygon fill="black" stroke="black" points="411.75,-134.3 401.75,-137.8 411.75,-141.3 411.75,-134.3"/>
</g>
<!-- SignoutComponent -->
<g id="node2" class="node">
<title>SignoutComponent</title>
<polygon fill="#ffffb3" stroke="black" points="561.4,-84.8 436.6,-84.8 436.6,-48.8 561.4,-48.8 561.4,-84.8"/>
<text text-anchor="middle" x="499" y="-62.6" font-family="Times,serif" font-size="14.00">SignoutComponent</text>
</g>
<!-- SignoutComponent&#45;&gt;AuthModule -->
<g id="edge2" class="edge">
<title>SignoutComponent&#45;&gt;AuthModule</title>
<path fill="none" stroke="black" d="M499,-84.82C499,-102.17 499,-125.8 499,-125.8 499,-125.8 411.84,-125.8 411.84,-125.8"/>
<polygon fill="black" stroke="black" points="411.84,-122.3 401.84,-125.8 411.84,-129.3 411.84,-122.3"/>
</g>
<!-- SignupComponent -->
<g id="node3" class="node">
<title>SignupComponent</title>
<polygon fill="#ffffb3" stroke="black" points="418.51,-84.8 297.49,-84.8 297.49,-48.8 418.51,-48.8 418.51,-84.8"/>
<text text-anchor="middle" x="358" y="-62.6" font-family="Times,serif" font-size="14.00">SignupComponent</text>
</g>
<!-- SignupComponent&#45;&gt;AuthModule -->
<g id="edge3" class="edge">
<title>SignupComponent&#45;&gt;AuthModule</title>
<path fill="none" stroke="black" d="M358,-84.91C358,-84.91 358,-103.79 358,-103.79"/>
<polygon fill="black" stroke="black" points="354.5,-103.79 358,-113.79 361.5,-103.79 354.5,-103.79"/>
</g>
<!-- AuthRoutingModule -->
<g id="node5" class="node">
<title>AuthRoutingModule</title>
<polygon fill="#8dd3c7" stroke="black" points="273.17,-84.8 270.17,-88.8 249.17,-88.8 246.17,-84.8 140.83,-84.8 140.83,-48.8 273.17,-48.8 273.17,-84.8"/>
<text text-anchor="middle" x="207" y="-62.6" font-family="Times,serif" font-size="14.00">AuthRoutingModule</text>
</g>
<!-- AuthRoutingModule&#45;&gt;AuthModule -->
<g id="edge4" class="edge">
<title>AuthRoutingModule&#45;&gt;AuthModule</title>
<path fill="none" stroke="black" d="M207,-84.82C207,-102.17 207,-125.8 207,-125.8 207,-125.8 304.32,-125.8 304.32,-125.8"/>
<polygon fill="black" stroke="black" points="304.32,-129.3 314.32,-125.8 304.32,-122.3 304.32,-129.3"/>
</g>
<!-- SharedModule -->
<g id="node6" class="node">
<title>SharedModule</title>
<polygon fill="#8dd3c7" stroke="black" points="122.42,-84.8 119.42,-88.8 98.42,-88.8 95.42,-84.8 23.58,-84.8 23.58,-48.8 122.42,-48.8 122.42,-84.8"/>
<text text-anchor="middle" x="73" y="-62.6" font-family="Times,serif" font-size="14.00">SharedModule</text>
</g>
<!-- SharedModule&#45;&gt;AuthModule -->
<g id="edge5" class="edge">
<title>SharedModule&#45;&gt;AuthModule</title>
<path fill="none" stroke="black" d="M73,-85.08C73,-106.12 73,-137.8 73,-137.8 73,-137.8 304.4,-137.8 304.4,-137.8"/>
<polygon fill="black" stroke="black" points="304.4,-141.3 314.4,-137.8 304.4,-134.3 304.4,-141.3"/>
</g>
</g>
</svg>
