<?xml version="1.0" encoding="UTF-8" standalone="no"?>
<!DOCTYPE svg PUBLIC "-//W3C//DTD SVG 1.1//EN"
 "http://www.w3.org/Graphics/SVG/1.1/DTD/svg11.dtd">
<!-- Generated by graphviz version 2.47.3 (20210619.1520)
 -->
<!-- Title: dependencies Pages: 1 -->
<svg width="1628pt" height="174pt"
 viewBox="0.00 0.00 1628.00 173.80" xmlns="http://www.w3.org/2000/svg" xmlns:xlink="http://www.w3.org/1999/xlink">
<g id="graph0" class="graph" transform="scale(1 1) rotate(0) translate(4 169.8)">
<title>dependencies</title>
<polygon fill="white" stroke="transparent" points="-4,4 -4,-169.8 1624,-169.8 1624,4 -4,4"/>
<text text-anchor="middle" x="810" y="-8.2" font-family="sans-serif" font-size="14.00">dependencies</text>
<g id="clust1" class="cluster">
<title>cluster_InboxModule</title>
<polygon fill="none" stroke="black" stroke-dasharray="1,5" points="8,-32.8 8,-157.8 1612,-157.8 1612,-32.8 8,-32.8"/>
</g>
<g id="clust2" class="cluster">
<title>cluster_InboxModule_declarations</title>
<polygon fill="none" stroke="black" points="294,-40.8 294,-92.8 1604,-92.8 1604,-40.8 294,-40.8"/>
</g>
<g id="clust11" class="cluster">
<title>cluster_InboxModule_imports</title>
<polygon fill="none" stroke="black" points="16,-40.8 16,-92.8 286,-92.8 286,-40.8 16,-40.8"/>
</g>
<!-- EmailCreateComponent -->
<g id="node1" class="node">
<title>EmailCreateComponent</title>
<polygon fill="#ffffb3" stroke="black" points="1595.8,-84.8 1444.2,-84.8 1444.2,-48.8 1595.8,-48.8 1595.8,-84.8"/>
<text text-anchor="middle" x="1520" y="-62.6" font-family="Times,serif" font-size="14.00">EmailCreateComponent</text>
</g>
<!-- InboxModule -->
<g id="node9" class="node">
<title>InboxModule</title>
<polygon fill="#8dd3c7" stroke="black" points="823.21,-149.8 820.21,-153.8 799.21,-153.8 796.21,-149.8 730.79,-149.8 730.79,-113.8 823.21,-113.8 823.21,-149.8"/>
<text text-anchor="middle" x="777" y="-127.6" font-family="Times,serif" font-size="14.00">InboxModule</text>
</g>
<!-- EmailCreateComponent&#45;&gt;InboxModule -->
<g id="edge1" class="edge">
<title>EmailCreateComponent&#45;&gt;InboxModule</title>
<path fill="none" stroke="black" d="M1520,-84.81C1520,-107.29 1520,-142.8 1520,-142.8 1520,-142.8 833.2,-142.8 833.2,-142.8"/>
<polygon fill="black" stroke="black" points="833.2,-139.3 823.2,-142.8 833.2,-146.3 833.2,-139.3"/>
</g>
<!-- EmailFormComponent -->
<g id="node2" class="node">
<title>EmailFormComponent</title>
<polygon fill="#ffffb3" stroke="black" points="1426.61,-84.8 1281.39,-84.8 1281.39,-48.8 1426.61,-48.8 1426.61,-84.8"/>
<text text-anchor="middle" x="1354" y="-62.6" font-family="Times,serif" font-size="14.00">EmailFormComponent</text>
</g>
<!-- EmailFormComponent&#45;&gt;InboxModule -->
<g id="edge2" class="edge">
<title>EmailFormComponent&#45;&gt;InboxModule</title>
<path fill="none" stroke="black" d="M1354,-84.93C1354,-105.37 1354,-135.8 1354,-135.8 1354,-135.8 833.24,-135.8 833.24,-135.8"/>
<polygon fill="black" stroke="black" points="833.24,-132.3 823.24,-135.8 833.24,-139.3 833.24,-132.3"/>
</g>
<!-- EmailIndexComponent -->
<g id="node3" class="node">
<title>EmailIndexComponent</title>
<polygon fill="#ffffb3" stroke="black" points="1263.15,-84.8 1116.85,-84.8 1116.85,-48.8 1263.15,-48.8 1263.15,-84.8"/>
<text text-anchor="middle" x="1190" y="-62.6" font-family="Times,serif" font-size="14.00">EmailIndexComponent</text>
</g>
<!-- EmailIndexComponent&#45;&gt;InboxModule -->
<g id="edge3" class="edge">
<title>EmailIndexComponent&#45;&gt;InboxModule</title>
<path fill="none" stroke="black" d="M1190,-85.07C1190,-103.36 1190,-128.8 1190,-128.8 1190,-128.8 833.17,-128.8 833.17,-128.8"/>
<polygon fill="black" stroke="black" points="833.17,-125.3 823.17,-128.8 833.17,-132.3 833.17,-125.3"/>
</g>
<!-- EmailReplyComponent -->
<g id="node4" class="node">
<title>EmailReplyComponent</title>
<polygon fill="#ffffb3" stroke="black" points="1099.21,-84.8 950.79,-84.8 950.79,-48.8 1099.21,-48.8 1099.21,-84.8"/>
<text text-anchor="middle" x="1025" y="-62.6" font-family="Times,serif" font-size="14.00">EmailReplyComponent</text>
</g>
<!-- EmailReplyComponent&#45;&gt;InboxModule -->
<g id="edge4" class="edge">
<title>EmailReplyComponent&#45;&gt;InboxModule</title>
<path fill="none" stroke="black" d="M1025,-84.81C1025,-100.85 1025,-121.8 1025,-121.8 1025,-121.8 833.36,-121.8 833.36,-121.8"/>
<polygon fill="black" stroke="black" points="833.36,-118.3 823.36,-121.8 833.36,-125.3 833.36,-118.3"/>
</g>
<!-- EmailShowComponent -->
<g id="node5" class="node">
<title>EmailShowComponent</title>
<polygon fill="#ffffb3" stroke="black" points="933.16,-84.8 786.84,-84.8 786.84,-48.8 933.16,-48.8 933.16,-84.8"/>
<text text-anchor="middle" x="860" y="-62.6" font-family="Times,serif" font-size="14.00">EmailShowComponent</text>
</g>
<!-- EmailShowComponent&#45;&gt;InboxModule -->
<g id="edge5" class="edge">
<title>EmailShowComponent&#45;&gt;InboxModule</title>
<path fill="none" stroke="black" d="M804.89,-84.91C804.89,-84.91 804.89,-103.79 804.89,-103.79"/>
<polygon fill="black" stroke="black" points="801.39,-103.79 804.89,-113.79 808.39,-103.79 801.39,-103.79"/>
</g>
<!-- InboxHomeComponent -->
<g id="node6" class="node">
<title>InboxHomeComponent</title>
<polygon fill="#ffffb3" stroke="black" points="769.2,-84.8 620.8,-84.8 620.8,-48.8 769.2,-48.8 769.2,-84.8"/>
<text text-anchor="middle" x="695" y="-62.6" font-family="Times,serif" font-size="14.00">InboxHomeComponent</text>
</g>
<!-- InboxHomeComponent&#45;&gt;InboxModule -->
<g id="edge6" class="edge">
<title>InboxHomeComponent&#45;&gt;InboxModule</title>
<path fill="none" stroke="black" d="M750,-84.91C750,-84.91 750,-103.79 750,-103.79"/>
<polygon fill="black" stroke="black" points="746.5,-103.79 750,-113.79 753.5,-103.79 746.5,-103.79"/>
</g>
<!-- NotfoundComponent -->
<g id="node7" class="node">
<title>NotfoundComponent</title>
<polygon fill="#ffffb3" stroke="black" points="602.49,-84.8 467.51,-84.8 467.51,-48.8 602.49,-48.8 602.49,-84.8"/>
<text text-anchor="middle" x="535" y="-62.6" font-family="Times,serif" font-size="14.00">NotfoundComponent</text>
</g>
<!-- NotfoundComponent&#45;&gt;InboxModule -->
<g id="edge7" class="edge">
<title>NotfoundComponent&#45;&gt;InboxModule</title>
<path fill="none" stroke="black" d="M535,-84.81C535,-100.85 535,-121.8 535,-121.8 535,-121.8 720.63,-121.8 720.63,-121.8"/>
<polygon fill="black" stroke="black" points="720.63,-125.3 730.63,-121.8 720.63,-118.3 720.63,-125.3"/>
</g>
<!-- PlaceholderComponent -->
<g id="node8" class="node">
<title>PlaceholderComponent</title>
<polygon fill="#ffffb3" stroke="black" points="449.92,-84.8 302.08,-84.8 302.08,-48.8 449.92,-48.8 449.92,-84.8"/>
<text text-anchor="middle" x="376" y="-62.6" font-family="Times,serif" font-size="14.00">PlaceholderComponent</text>
</g>
<!-- PlaceholderComponent&#45;&gt;InboxModule -->
<g id="edge8" class="edge">
<title>PlaceholderComponent&#45;&gt;InboxModule</title>
<path fill="none" stroke="black" d="M376,-85.07C376,-103.36 376,-128.8 376,-128.8 376,-128.8 720.61,-128.8 720.61,-128.8"/>
<polygon fill="black" stroke="black" points="720.61,-132.3 730.61,-128.8 720.61,-125.3 720.61,-132.3"/>
</g>
<!-- InboxRoutingModule -->
<g id="node10" class="node">
<title>InboxRoutingModule</title>
<polygon fill="#8dd3c7" stroke="black" points="277.83,-84.8 274.83,-88.8 253.83,-88.8 250.83,-84.8 140.17,-84.8 140.17,-48.8 277.83,-48.8 277.83,-84.8"/>
<text text-anchor="middle" x="209" y="-62.6" font-family="Times,serif" font-size="14.00">InboxRoutingModule</text>
</g>
<!-- InboxRoutingModule&#45;&gt;InboxModule -->
<g id="edge9" class="edge">
<title>InboxRoutingModule&#45;&gt;InboxModule</title>
<path fill="none" stroke="black" d="M209,-84.93C209,-105.37 209,-135.8 209,-135.8 209,-135.8 720.52,-135.8 720.52,-135.8"/>
<polygon fill="black" stroke="black" points="720.52,-139.3 730.52,-135.8 720.52,-132.3 720.52,-139.3"/>
</g>
<!-- SharedModule -->
<g id="node11" class="node">
<title>SharedModule</title>
<polygon fill="#8dd3c7" stroke="black" points="122.42,-84.8 119.42,-88.8 98.42,-88.8 95.42,-84.8 23.58,-84.8 23.58,-48.8 122.42,-48.8 122.42,-84.8"/>
<text text-anchor="middle" x="73" y="-62.6" font-family="Times,serif" font-size="14.00">SharedModule</text>
</g>
<!-- SharedModule&#45;&gt;InboxModule -->
<g id="edge10" class="edge">
<title>SharedModule&#45;&gt;InboxModule</title>
<path fill="none" stroke="black" d="M73,-84.81C73,-107.29 73,-142.8 73,-142.8 73,-142.8 720.81,-142.8 720.81,-142.8"/>
<polygon fill="black" stroke="black" points="720.81,-146.3 730.81,-142.8 720.81,-139.3 720.81,-146.3"/>
</g>
</g>
</svg>
